<svg width="55" height="55" viewBox="0 0 55 55" fill="none" xmlns="http://www.w3.org/2000/svg">
<g clip-path="url(#clip0_1_27)">
<path d="M50 0H5C2.23858 0 0 2.23858 0 5V50C0 52.7614 2.23858 55 5 55H50C52.7614 55 55 52.7614 55 50V5C55 2.23858 52.7614 0 50 0Z" fill="#FF7F5C"/>
<path d="M31.168 41.834C30.9709 41.8346 30.7756 41.7962 30.5935 41.7208C30.4114 41.6455 30.246 41.5347 30.107 41.395L27.001 38.289L23.895 41.395C23.6136 41.6771 23.2317 41.8358 22.8333 41.8362C22.4348 41.8367 22.0526 41.6789 21.7705 41.3975C21.4884 41.1161 21.3297 40.7342 21.3292 40.3358C21.3288 39.9373 21.4866 39.5551 21.768 39.273L25.934 35.106C26.2153 34.8248 26.5967 34.6668 26.9945 34.6668C27.3922 34.6668 27.7737 34.8248 28.055 35.106L32.222 39.273C32.4315 39.4824 32.5743 39.7491 32.6325 40.0395C32.6906 40.3299 32.6615 40.631 32.5488 40.9049C32.4361 41.1788 32.2448 41.4132 31.9991 41.5785C31.7533 41.7439 31.4642 41.8328 31.168 41.834ZM36.468 38.776C36.1371 38.7775 35.815 38.6696 35.5519 38.469C35.2887 38.2684 35.0992 37.9864 35.013 37.667L33.489 31.967C33.386 31.5828 33.4399 31.1735 33.6386 30.829C33.8374 30.4845 34.1649 30.2331 34.549 30.13L40.241 28.605C40.6256 28.502 41.0353 28.5559 41.3801 28.755C41.7249 28.9541 41.9765 29.2819 42.0795 29.6665C42.1825 30.0511 42.1286 30.4608 41.9295 30.8056C41.7304 31.1504 41.4026 31.402 41.018 31.505L36.775 32.643L37.912 36.886C37.963 37.0763 37.9759 37.2747 37.9502 37.47C37.9244 37.6653 37.8605 37.8537 37.762 38.0243C37.6634 38.1948 37.5323 38.3443 37.376 38.4642C37.2197 38.5841 37.0413 38.6721 36.851 38.723C36.7239 38.7577 36.5928 38.7755 36.461 38.776H36.468ZM17.543 38.776C17.4117 38.776 17.2809 38.7589 17.154 38.725C16.7699 38.6219 16.4424 38.3705 16.2436 38.026C16.0449 37.6815 15.991 37.2722 16.094 36.888L17.231 32.645L12.98 31.507C12.7896 31.456 12.6111 31.3681 12.4546 31.2481C12.2982 31.1282 12.1669 30.9786 12.0683 30.8079C11.8692 30.4633 11.8151 30.0536 11.918 29.669C12.0209 29.2844 12.2724 28.9565 12.617 28.7573C12.9617 28.5582 13.3714 28.5041 13.756 28.607L19.449 30.132C19.8327 30.2351 20.1598 30.4863 20.3585 30.8303C20.5572 31.1743 20.6113 31.5831 20.509 31.967L18.984 37.667C18.8981 37.9853 18.7096 38.2664 18.4479 38.4669C18.1862 38.6673 17.8657 38.776 17.536 38.776H17.543ZM40.63 25.442C40.4983 25.4419 40.3671 25.4244 40.24 25.39L34.549 23.867C34.1649 23.7639 33.8374 23.5125 33.6386 23.168C33.4399 22.8235 33.386 22.4142 33.489 22.03L35.013 16.337C35.116 15.9524 35.3676 15.6246 35.7124 15.4255C36.0572 15.2264 36.4669 15.1725 36.8515 15.2755C37.2361 15.3785 37.5639 15.6301 37.763 15.9749C37.9621 16.3197 38.016 16.7294 37.913 17.114L36.775 21.356L41.018 22.494C41.3695 22.5881 41.6748 22.8067 41.8771 23.1092C42.0794 23.4117 42.1648 23.7774 42.1174 24.1382C42.0701 24.499 41.8932 24.8302 41.6197 25.0703C41.3463 25.3103 40.9949 25.4428 40.631 25.443L40.63 25.442ZM13.366 25.442C13.0022 25.4416 12.651 25.3089 12.3777 25.0688C12.1044 24.8287 11.9277 24.4974 11.8805 24.1367C11.8333 23.776 11.9188 23.4104 12.121 23.108C12.3233 22.8056 12.6286 22.5871 12.98 22.493L17.223 21.356L16.086 17.113C15.9834 16.7288 16.0375 16.3197 16.2364 15.9754C16.4354 15.6311 16.7629 15.3799 17.147 15.277C17.5312 15.174 17.9405 15.2279 18.285 15.4267C18.6294 15.6254 18.8809 15.9529 18.984 16.337L20.509 22.029C20.5601 22.2193 20.5733 22.4178 20.5476 22.6131C20.522 22.8085 20.4582 22.9969 20.3598 23.1676C20.2613 23.3383 20.1302 23.4879 19.974 23.6079C19.8177 23.7279 19.6393 23.816 19.449 23.867L13.757 25.391C13.6301 25.4249 13.4993 25.442 13.368 25.442H13.366ZM26.999 19.334C26.8019 19.3346 26.6067 19.2961 26.4245 19.2207C26.2424 19.1454 26.0771 19.0347 25.938 18.895L21.768 14.728C21.6287 14.5885 21.5182 14.4229 21.4428 14.2406C21.3675 14.0584 21.3288 13.8631 21.329 13.6659C21.3291 13.4688 21.3681 13.2735 21.4437 13.0914C21.5192 12.9093 21.63 12.7438 21.7695 12.6045C21.909 12.4652 22.0746 12.3547 22.2569 12.2794C22.4391 12.204 22.6344 12.1653 22.8316 12.1655C23.0287 12.1656 23.224 12.2046 23.4061 12.2802C23.5882 12.3558 23.7537 12.4665 23.893 12.606L26.999 15.712L30.105 12.606C30.3879 12.3328 30.7668 12.1816 31.1601 12.185C31.5534 12.1884 31.9296 12.3462 32.2077 12.6243C32.4858 12.9024 32.6436 13.2786 32.647 13.6719C32.6504 14.0652 32.4992 14.4441 32.226 14.727L28.059 18.894C27.9202 19.0339 27.7551 19.1448 27.5731 19.2203C27.3912 19.2958 27.196 19.3345 26.999 19.334Z" fill="#FFB39E"/>
<path d="M28.5 17.833V24.402L34.189 21.118C34.5338 20.9191 34.9434 20.8653 35.3279 20.9684C35.7123 21.0716 36.0401 21.3232 36.239 21.668C36.4379 22.0128 36.4917 22.4225 36.3886 22.8069C36.2854 23.1914 36.0338 23.5191 35.689 23.718L30 27.002L35.689 30.286C36.0338 30.4849 36.2854 30.8126 36.3886 31.1971C36.4917 31.5815 36.4379 31.9912 36.239 32.336C36.0401 32.6808 35.7123 32.9324 35.3279 33.0356C34.9434 33.1387 34.5338 33.0849 34.189 32.886L28.5 29.602V36.171C28.5 36.5688 28.342 36.9504 28.0606 37.2317C27.7793 37.513 27.3978 37.671 27 37.671C26.6022 37.671 26.2206 37.513 25.9393 37.2317C25.658 36.9504 25.5 36.5688 25.5 36.171V29.598L19.811 32.882C19.4662 33.0809 19.0565 33.1347 18.6721 33.0316C18.2876 32.9284 17.9599 32.6768 17.761 32.332C17.5621 31.9872 17.5083 31.5775 17.6114 31.1931C17.7146 30.8086 17.9662 30.4809 18.311 30.282L24 26.998L18.311 23.715C17.9662 23.5161 17.7146 23.1884 17.6114 22.8039C17.5083 22.4195 17.5621 22.0098 17.761 21.665C17.9599 21.3202 18.2876 21.0686 18.6721 20.9654C19.0565 20.8623 19.4662 20.9161 19.811 21.115L25.5 24.402V17.833C25.5 17.4352 25.658 17.0536 25.9393 16.7723C26.2206 16.491 26.6022 16.333 27 16.333C27.3978 16.333 27.7793 16.491 28.0606 16.7723C28.342 17.0536 28.5 17.4352 28.5 17.833Z" fill="white"/>
</g>
<defs>
<clipPath id="clip0_1_27">
<rect width="55" height="55" fill="white"/>
</clipPath>
</defs>
</svg>