<svg
          xmlns="http://www.w3.org/2000/svg"
          width="20"
          height="19.964"
          viewBox="0 0 20 19.964"
        >
          <g id="Menu_ICon" data-name="Menu ICon" transform="translate(0 0)">
            <path
              id="Union"
              d="M17,19.964H3a3,3,0,0,1-3-3V9.3A3,3,0,0,1,.993,7.07l7-6.3a3,3,0,0,1,4.014,0l7,6.3A3,3,0,0,1,20,9.3v7.664A3,3,0,0,1,17,19.964Zm-8-10h2a3,3,0,0,1,3,3v5.5h3a1.5,1.5,0,0,0,1.5-1.5V9.3A1.5,1.5,0,0,0,18,8.185l-7-6.3A1.5,1.5,0,0,0,9,1.885l-7,6.3A1.5,1.5,0,0,0,1.5,9.3v7.664a1.5,1.5,0,0,0,1.5,1.5H6v-5.5A3,3,0,0,1,9,9.964Zm0,1.5a1.5,1.5,0,0,0-1.5,1.5v5.5h5v-5.5a1.5,1.5,0,0,0-1.5-1.5Z"
              fill="#838383"
            />
          </g>
        </svg>