<svg id="Notification_Icon" data-name="Notification Icon" xmlns="http://www.w3.org/2000/svg" width="20" height="20" viewBox="0 0 20 20">
  <path id="Union" d="M10,20a4,4,0,0,1-4-4H1.4a1.4,1.4,0,0,1-.976-2.414l1.03-.995a2.008,2.008,0,0,0,.61-1.444l-.01-3.153A7.971,7.971,0,1,1,18,7.97v3.2a1.987,1.987,0,0,0,.586,1.414l1,1a1.415,1.415,0,0,1-1,2.415H14A4.005,4.005,0,0,1,10,20ZM7.5,16a2.5,2.5,0,1,0,5,0ZM10.03,1.5A6.471,6.471,0,0,0,3.559,7.99l.01,3.153A3.518,3.518,0,0,1,2.5,13.671l-.858.829H18.379l-.854-.853A3.48,3.48,0,0,1,16.5,11.172V7.97A6.477,6.477,0,0,0,10.03,1.5Z"/>
</svg>
