<svg xmlns="http://www.w3.org/2000/svg" width="18" height="18" viewBox="0 0 18 18">
  <g id="Menu_ICon" data-name="Menu ICon" transform="translate(0)">
    <path id="Rectangle_241_Stroke_" data-name="Rectangle 241 (Stroke)" d="M5,8H3A3,3,0,0,1,0,5V3A3,3,0,0,1,3,0H5A3,3,0,0,1,8,3V5A3,3,0,0,1,5,8ZM3,1.5A1.5,1.5,0,0,0,1.5,3V5A1.5,1.5,0,0,0,3,6.5H5A1.5,1.5,0,0,0,6.5,5V3A1.5,1.5,0,0,0,5,1.5Z" fill="#ff6647"/>
    <path id="Rectangle_243_Stroke_" data-name="Rectangle 243 (Stroke)" d="M5,8H3A3,3,0,0,1,0,5V3A3,3,0,0,1,3,0H5A3,3,0,0,1,8,3V5A3,3,0,0,1,5,8ZM3,1.5A1.5,1.5,0,0,0,1.5,3V5A1.5,1.5,0,0,0,3,6.5H5A1.5,1.5,0,0,0,6.5,5V3A1.5,1.5,0,0,0,5,1.5Z" transform="translate(0 10)" fill="#ff6647"/>
    <path id="Rectangle_242_Stroke_" data-name="Rectangle 242 (Stroke)" d="M5,8H3A3,3,0,0,1,0,5V3A3,3,0,0,1,3,0H5A3,3,0,0,1,8,3V5A3,3,0,0,1,5,8ZM3,1.5A1.5,1.5,0,0,0,1.5,3V5A1.5,1.5,0,0,0,3,6.5H5A1.5,1.5,0,0,0,6.5,5V3A1.5,1.5,0,0,0,5,1.5Z" transform="translate(10)" fill="#ff6647"/>
    <path id="Rectangle_244_Stroke_" data-name="Rectangle 244 (Stroke)" d="M5,8H3A3,3,0,0,1,0,5V3A3,3,0,0,1,3,0H5A3,3,0,0,1,8,3V5A3,3,0,0,1,5,8ZM3,1.5A1.5,1.5,0,0,0,1.5,3V5A1.5,1.5,0,0,0,3,6.5H5A1.5,1.5,0,0,0,6.5,5V3A1.5,1.5,0,0,0,5,1.5Z" transform="translate(10 10)" fill="#ff6647"/>
  </g>
</svg>
