<svg xmlns="http://www.w3.org/2000/svg" width="20.21" height="22" viewBox="0 0 20.21 22">
  <g id="Menu_ICon" data-name="Menu ICon" transform="translate(0.001)">
    <path id="Oval_Stroke_" data-name="Oval (Stroke)" d="M4,8A4,4,0,1,1,8,4,4,4,0,0,1,4,8ZM4,1.5A2.5,2.5,0,1,0,6.5,4,2.5,2.5,0,0,0,4,1.5Z" transform="translate(6.105 7)" fill="#838383"/>
    <path id="Union_Stroke_" data-name="Union (Stroke)" d="M10.726,22H9.484a2,2,0,0,1-1.9-1.367L7.2,19.47a2.313,2.313,0,0,0-1.1-1.256c-.09-.051-.164-.094-.233-.135a2.437,2.437,0,0,0-1.244-.367,1.974,1.974,0,0,0-.4.04L3.022,18a2,2,0,0,1-2.133-.959L.268,15.962A2,2,0,0,1,.5,13.635l.815-.919a2.308,2.308,0,0,0,.538-1.58c0-.09,0-.181,0-.271a2.309,2.309,0,0,0-.538-1.581L.5,8.365A2,2,0,0,1,.268,6.038L.889,4.963A2,2,0,0,1,3.022,4l1.2.246a1.981,1.981,0,0,0,.395.039,2.436,2.436,0,0,0,1.246-.367c.076-.045.154-.09.233-.134A2.317,2.317,0,0,0,7.2,2.53l.387-1.163A2,2,0,0,1,9.484,0h1.242a2,2,0,0,1,1.9,1.367L13.01,2.53a2.317,2.317,0,0,0,1.1,1.257c.079.044.158.089.233.134a2.44,2.44,0,0,0,1.246.367,1.98,1.98,0,0,0,.395-.039L17.187,4a2,2,0,0,1,2.133.959l.621,1.076a2,2,0,0,1-.236,2.327l-.814.919a2.312,2.312,0,0,0-.538,1.581c0,.089,0,.181,0,.271a2.308,2.308,0,0,0,.538,1.58l.814.919a2,2,0,0,1,.236,2.327l-.621,1.076A2,2,0,0,1,17.187,18l-1.2-.246a1.974,1.974,0,0,0-.4-.04,2.437,2.437,0,0,0-1.244.367c-.069.041-.143.084-.233.135a2.313,2.313,0,0,0-1.1,1.256l-.387,1.163A2,2,0,0,1,10.726,22ZM4.621,16.211a3.954,3.954,0,0,1,2.015.581c.074.044.134.079.19.11A3.806,3.806,0,0,1,8.622,19l.387,1.163a.5.5,0,0,0,.475.342h1.242a.5.5,0,0,0,.474-.342L11.588,19a3.806,3.806,0,0,1,1.8-2.093c.056-.031.116-.066.19-.11a3.954,3.954,0,0,1,2.015-.581,3.481,3.481,0,0,1,.7.071l1.2.246a.5.5,0,0,0,.534-.24l.621-1.075a.5.5,0,0,0-.059-.581l-.815-.919a3.8,3.8,0,0,1-.915-2.6c0-.074,0-.148,0-.223a3.805,3.805,0,0,1,.915-2.6l.815-.919a.5.5,0,0,0,.059-.581l-.621-1.076a.5.5,0,0,0-.534-.24l-1.2.247a3.487,3.487,0,0,1-.7.07,3.957,3.957,0,0,1-2.017-.581c-.063-.038-.126-.074-.19-.11A3.8,3.8,0,0,1,11.588,3L11.2,1.842a.5.5,0,0,0-.474-.342H9.484a.5.5,0,0,0-.475.342L8.622,3A3.8,3.8,0,0,1,6.827,5.1c-.064.036-.127.072-.19.11a3.958,3.958,0,0,1-2.017.581,3.487,3.487,0,0,1-.7-.07l-1.2-.247a.5.5,0,0,0-.534.24L1.567,6.788a.5.5,0,0,0,.059.581l.814.92a3.8,3.8,0,0,1,.915,2.6c0,.075,0,.149,0,.223a3.8,3.8,0,0,1-.915,2.6l-.814.919a.5.5,0,0,0-.059.581l.621,1.076a.5.5,0,0,0,.534.239l1.2-.246A3.482,3.482,0,0,1,4.621,16.211Z" fill="#838383"/>
  </g>
</svg>
  